<?xml version="1.0" encoding="utf-8"?>
<!-- Generator: Adobe Illustrator 17.0.2, SVG Export Plug-In . SVG Version: 6.00 Build 0)  -->
<!DOCTYPE svg PUBLIC "-//W3C//DTD SVG 1.1//EN" "http://www.w3.org/Graphics/SVG/1.1/DTD/svg11.dtd">
<svg version="1.1" id="Layer_1" xmlns="http://www.w3.org/2000/svg" xmlns:xlink="http://www.w3.org/1999/xlink" x="0px" y="0px"
	 width="439.527px" height="439.52px" viewBox="0 0 439.527 439.52" enable-background="new 0 0 439.527 439.52"
	 xml:space="preserve">
<g>
	<path fill="#87CFC6" d="M227.143,424.767c-28.671,0-56.485-5.615-82.669-16.691c-25.291-10.697-48.004-26.01-67.508-45.515
		s-34.818-42.218-45.515-67.508c-11.075-26.185-16.691-53.999-16.691-82.67s5.615-56.485,16.691-82.67
		c10.697-25.29,26.01-48.003,45.515-67.508s42.218-34.818,67.508-45.515C170.658,5.615,198.472,0,227.143,0
		s56.485,5.615,82.67,16.69c25.291,10.697,48.004,26.011,67.508,45.515s34.817,42.218,45.515,67.508
		c11.076,26.185,16.691,53.999,16.691,82.67s-5.615,56.485-16.691,82.67c-10.697,25.291-26.01,48.004-45.515,67.508
		s-42.218,34.817-67.508,45.515C283.628,419.152,255.814,424.767,227.143,424.767z M227.143,2.832
		c-28.29,0-55.733,5.54-81.566,16.467c-24.953,10.554-47.363,25.664-66.608,44.909c-19.246,19.246-34.355,41.656-44.909,66.609
		c-10.927,25.834-16.467,53.276-16.467,81.566s5.54,55.733,16.467,81.566c10.554,24.953,25.664,47.364,44.909,66.609
		c19.245,19.246,41.656,34.355,66.608,44.909c25.834,10.927,53.276,16.467,81.566,16.467s55.733-5.54,81.566-16.467
		c24.953-10.554,47.364-25.664,66.609-44.909c19.246-19.245,34.355-41.656,44.909-66.609c10.927-25.834,16.467-53.276,16.467-81.566
		s-5.54-55.733-16.467-81.566c-10.554-24.953-25.664-47.363-44.909-66.609c-19.245-19.245-41.656-34.354-66.609-44.909
		C282.875,8.373,255.433,2.832,227.143,2.832z"/>
</g>
<g>
	<rect x="24.633" y="75.465" fill="#CCB189" width="165.327" height="134.952"/>
	<path opacity="0.4" fill="#87543C" d="M159.186,197.604h17.25v-16.701h7.556l-16.18-15.75l-16.181,15.75h7.556V197.604z
		 M118.583,203.324h65.408v-2.892h-65.408V203.324z M126.139,197.604h17.247v-16.701h7.556l-16.18-15.75l-16.18,15.75h7.556V197.604
		z"/>
</g>
<g>
	<rect x="70.977" y="54.867" fill="#CCB189" width="165.327" height="134.952"/>
	<path opacity="0.4" fill="#87543C" d="M205.53,177.007h17.25v-16.701h7.556l-16.18-15.75l-16.181,15.75h7.556V177.007z
		 M164.927,182.726h65.408v-2.893h-65.408V182.726z M172.484,177.007h17.247v-16.701h7.556l-16.18-15.75l-16.18,15.75h7.556V177.007
		z"/>
</g>
<g>
	<g>
		<g>
			<g>
				<rect x="11.162" y="284.574" fill="#58595B" width="28.844" height="34.677"/>
				<path fill="#929497" d="M19.067,277.711l8.204,61.37h325.976c0-47.02-23.91-61.37-64.916-61.37H19.067z"/>
				<g>
					<circle fill="#58595B" cx="165.241" cy="330.977" r="40.67"/>
					<circle fill="#BBBDBF" cx="165.241" cy="330.977" r="29.066"/>
					<circle fill="#929497" cx="165.241" cy="330.977" r="19.729"/>
				</g>
				<g>
					<circle fill="#58595B" cx="80.32" cy="330.977" r="40.67"/>
					<circle fill="#BBBDBF" cx="80.321" cy="330.977" r="29.066"/>
					<circle fill="#929497" cx="80.32" cy="330.977" r="19.73"/>
				</g>
				<path fill="#FFDD00" d="M337.221,170.099c-63.914,0-76.629,0-76.629,0v168.982h152.304c0,0,0-50.994,0-84.492
					C412.896,198.452,385.287,170.099,337.221,170.099z"/>
				<path fill="#8DD7F7" d="M412.896,297.017c-8.08,0-14.63-6.552-14.63-14.632c0-8.08,6.55-14.629,14.63-14.629V297.017z"/>
				<g>
					<path fill="#8DD7F7" d="M317.592,254.589h82.57c0-24.354-5.543-42.757-16.472-54.699
						c-10.361-11.319-25.996-17.057-46.469-17.057h-19.629V254.589z"/>
					<rect x="273.326" y="182.833" fill="#8DD7F7" width="27.962" height="71.756"/>
				</g>
				<g>
					<circle fill="#58595B" cx="314.841" cy="330.977" r="40.669"/>
					<circle fill="#BBBDBF" cx="314.84" cy="330.977" r="29.065"/>
					<circle fill="#929497" cx="314.841" cy="330.977" r="19.729"/>
				</g>
				<rect x="398.475" y="308.396" fill="#58595B" width="28.843" height="20.19"/>
			</g>
		</g>
		<rect y="115.165" fill="#FFCA05" width="260.591" height="162.546"/>
		<rect x="13.955" y="129.119" fill="#FFDD00" width="232.681" height="134.637"/>
	</g>
</g>
<g>
	<rect x="165.349" y="330.328" fill="#CCB189" width="162.575" height="109.192"/>
	<path opacity="0.4" fill="#87543C" d="M293.663,368.127h15.714v-11.676h4.76l-12.618-13.56l-12.616,13.56h4.76V368.127z
		 M317.259,338.814h-31.48c-0.527,0-0.955,0.428-0.955,0.956v31.478c0,0.528,0.427,0.956,0.955,0.956h31.48
		c0.529,0,0.956-0.427,0.956-0.956V339.77C318.215,339.242,317.788,338.814,317.259,338.814z M316.305,370.293h-29.57v-29.571h29.57
		V370.293z"/>
	<path opacity="0.4" fill="#87543C" d="M204.029,396.817c-0.412-1.532-1.266-2.55-2.492-3.068c-1.444-0.645-3.273-0.552-5.746,0.109
		c-2.026,0.544-3.767,1.168-4.916,1.716l4.396,16.409l3.732-0.999l-1.753-6.549l1.111-0.298c1.564-0.394,2.426-0.041,3.46,1.933
		c1.018,1.926,1.802,3.172,2.176,3.576l3.854-1.032c-0.493-0.558-1.57-2.601-2.598-4.363c-0.832-1.42-1.765-2.335-3.053-2.493
		l-0.021-0.074C203.475,400.78,204.591,398.917,204.029,396.817z M198.004,401.318l-1.484,0.398l-1.225-4.573
		c0.253-0.147,0.757-0.336,1.672-0.58c1.731-0.465,2.979,0.048,3.385,1.556C200.743,399.578,199.883,400.814,198.004,401.318z
		 M181.372,421.131l94.972-25.447l-0.748-2.792l-94.972,25.448L181.372,421.131z M188.787,399.179l-0.827-3.09l-10.157,2.722
		l4.462,16.658l3.757-1.008l-1.795-6.696l5.98-1.603l-0.821-3.065l-5.98,1.602l-1.021-3.806L188.787,399.179z M268.951,377.698
		l-0.828-3.088l-10.255,2.748l4.464,16.658l10.602-2.841l-0.829-3.089l-6.847,1.834l-1.058-3.954l6.13-1.643l-0.822-3.065
		l-6.129,1.643l-0.928-3.461L268.951,377.698z M245.231,380.743l4.464,16.658l10.38-2.781l-0.847-3.164l-6.625,1.775l-3.615-13.494
		L245.231,380.743z M217.656,401.403l2.432,3.931l4.052-1.086l-9.653-15.267l-4.917,1.318l-0.627,18.022l3.903-1.047l0.016-4.587
		L217.656,401.403z M212.717,395.918c-0.01-1.029-0.075-2.364-0.119-3.41l0.076-0.02c0.506,0.897,1.14,2.078,1.676,2.994
		l1.986,3.257l-3.683,0.986L212.717,395.918z M174.152,394.189l0.749,2.791l94.971-25.447l-0.747-2.791L174.152,394.189z
		 M238.185,382.63l4.465,16.659l3.756-1.006l-4.465-16.657L238.185,382.63z M230.807,387.761c1.828-0.49,3.021-0.492,4.047-0.316
		l-0.024-3.252c-0.913-0.151-2.682-0.129-4.833,0.447c-5.461,1.464-8.642,5.707-7.182,11.249c0.654,2.447,2.076,4.396,3.976,5.45
		c1.924,1.048,4.327,1.225,7.368,0.411c2.199-0.59,4.253-1.722,5.309-2.429l-2.352-8.775l-6.203,1.662l0.788,2.943l2.57-0.688
		l0.942,3.509c-0.264,0.202-0.93,0.487-1.77,0.711c-3.089,0.828-5.801-0.591-6.728-4.051
		C225.748,391.023,227.669,388.601,230.807,387.761z"/>
</g>
</svg>
