<?xml version="1.0" encoding="utf-8"?>
<!-- Generator: Adobe Illustrator 17.0.2, SVG Export Plug-In . SVG Version: 6.00 Build 0)  -->
<!DOCTYPE svg PUBLIC "-//W3C//DTD SVG 1.1//EN" "http://www.w3.org/Graphics/SVG/1.1/DTD/svg11.dtd">
<svg version="1.1" id="Layer_1" xmlns="http://www.w3.org/2000/svg" xmlns:xlink="http://www.w3.org/1999/xlink" x="0px" y="0px"
	 width="432.747px" height="428.215px" viewBox="0 0 432.747 428.215" enable-background="new 0 0 432.747 428.215"
	 xml:space="preserve">
<g>
	<path fill="#87CFC6" d="M219.557,426.378c-28.78,0-56.699-5.637-82.983-16.754c-25.387-10.738-48.186-26.109-67.764-45.687
		s-34.95-42.378-45.687-67.764c-11.118-26.284-16.754-54.204-16.754-82.983s5.637-56.699,16.754-82.983
		C33.86,104.819,49.232,82.02,68.81,62.441s42.378-34.95,67.764-45.688C162.858,5.637,190.778,0,219.557,0
		s56.699,5.637,82.983,16.754c25.387,10.738,48.186,26.109,67.764,45.688s34.95,42.378,45.687,67.764
		c11.118,26.284,16.754,54.204,16.754,82.983s-5.637,56.699-16.754,82.983c-10.738,25.387-26.109,48.186-45.687,67.764
		s-42.378,34.95-67.764,45.687C276.257,420.741,248.337,426.378,219.557,426.378z M219.557,2.843
		c-28.397,0-55.944,5.561-81.876,16.529c-25.048,10.594-47.543,25.761-66.861,45.079c-19.319,19.319-34.485,41.814-45.08,66.862
		c-10.968,25.932-16.529,53.479-16.529,81.876s5.561,55.944,16.529,81.876c10.594,25.048,25.761,47.544,45.08,66.862
		c19.318,19.319,41.813,34.485,66.861,45.08c25.932,10.968,53.479,16.529,81.876,16.529s55.944-5.561,81.876-16.529
		c25.048-10.594,47.544-25.761,66.862-45.08c19.319-19.318,34.485-41.813,45.08-66.862c10.968-25.932,16.529-53.479,16.529-81.876
		s-5.561-55.944-16.529-81.876c-10.594-25.048-25.761-47.543-45.08-66.862c-19.318-19.318-41.813-34.485-66.862-45.079
		C275.501,8.404,247.955,2.843,219.557,2.843z"/>
</g>
<polygon fill="#3BBB9A" points="31.266,331.048 13.815,309.236 77.804,309.236 72.715,320.87 44.355,324.505 "/>
<polygon fill="#D0D3D8" points="39.992,323.05 33.448,325.959 17.451,307.782 17.451,275.057 51.629,295.419 51.629,299.78 "/>
<polygon fill="#3BBB9A" points="31.266,285.963 14.543,274.33 325.038,274.33 338.851,285.963 313.4,293.964 223.962,289.604 "/>
<rect x="31.266" y="285.963" fill="#5CC2A7" width="307.584" height="45.085"/>
<rect x="211.601" y="285.963" fill="#FFFFFF" width="51.628" height="45.085"/>
<rect x="169.426" y="285.963" fill="#F29B35" width="43.627" height="45.085"/>
<rect x="30.54" y="275.502" fill="#E6E6E6" width="279.951" height="16.627"/>
<rect x="143.25" y="285.963" fill="#7B68A6" width="10.905" height="45.085"/>
<rect x="30.54" y="268.514" fill="#C1AF8D" width="279.951" height="16.627"/>
<rect x="24.722" y="253.969" fill="#3F415D" width="281.407" height="17.451"/>
<polygon fill="#E08031" points="15.271,203.338 42.902,209.153 62.536,193.155 28.359,192.43 "/>
<rect x="0" y="239.426" fill="#7C68A7" width="331.581" height="18.904"/>
<rect x="34.176" y="202.345" fill="#9C8CBA" width="288.68" height="38.536"/>
<rect x="292.314" y="202.345" fill="#ECEDEE" width="23.268" height="38.536"/>
<polygon fill="#E0E0E0" points="304.675,208.446 16.548,204.615 15.271,186.258 304.675,186.258 "/>
<rect x="15.271" y="183.704" fill="#F29B35" width="289.404" height="19.634"/>
<path id="top_2_" fill="#C1AF8D" d="M89.718,98.078c-0.462-0.613-1.217-0.982-2.026-0.982c-0.497,0-0.979,0.14-1.391,0.404
	c-10.402,6.744-9.727,16.777-9.691,17.206c0.087,1.198,1.169,2.138,2.451,2.138c0.056,0,0.116,0,0.172-0.006
	c0.68-0.043,1.296-0.336,1.73-0.838c0.395-0.457,0.603-1.041,0.558-1.634c-0.023-0.313-0.439-7.846,7.574-13.045
	c0.551-0.356,0.916-0.899,1.03-1.52C90.236,99.193,90.091,98.584,89.718,98.078z"/>
<path fill="#E9573F" d="M106.597,122.535c-8.138-5.997-18.799-5.442-27.428,0.428h-0.004c-8.638-5.87-19.287-6.425-27.425-0.428
	c-11.434,8.435-13.665,27.413-5.8,41.208c7.868,13.793,14.907,19.465,21.751,19.465c6.849,0,8.865-3.021,11.429-3.17
	c2.565-0.152,4.671,3.17,11.517,3.17c6.849,0,13.886-5.672,21.756-19.465C120.258,149.948,118.03,130.97,106.597,122.535z"/>
<path fill="#F58B76" d="M62.669,127.801c-1.936,0.301-3.75,1.06-5.375,2.265c-3.039,2.242-5.225,6.051-6.158,10.72
	c-0.133,0.628-0.235,1.273-0.307,1.918c-0.135,1.096-1.066,1.903-2.141,1.903c-0.086,0-0.176-0.006-0.26-0.017
	c-1.186-0.138-2.031-1.218-1.882-2.392c0.086-0.767,0.206-1.525,0.353-2.265c1.146-5.726,3.926-10.463,7.831-13.344
	c2.194-1.615,4.641-2.639,7.272-3.055c1.178-0.187,2.283,0.627,2.463,1.796C64.654,126.511,63.847,127.619,62.669,127.801z"/>
<path id="leaf_2_" fill="#3BBB9A" d="M75.004,105.413c-0.203-0.337-5.133-8.245-12.962-9.666c-0.824-0.146-1.688-0.224-2.571-0.224
	v0.718l0,0v-0.718l0,0c-6.818,0-12.71,4.531-12.957,4.726c-0.569,0.445-0.718,1.253-0.336,1.874
	c0.206,0.33,5.135,8.244,12.964,9.666c0.827,0.144,1.69,0.222,2.567,0.222c6.82,0,12.713-4.538,12.96-4.731
	C75.242,106.834,75.384,106.027,75.004,105.413z"/>
<g>
	<path fill="#333332" d="M43.995,331.332l3.199,1.98c1.111,0.766,1.982,2.003,2.059,3.363c1.621,29.678,9.011,37.108,32.278,38.506
		c23.185,1.377,36.112-13.229,38.645-26.782c1.064-5.677,5.119-8.419,9.456-8.419c4.338,0,8.4,2.742,9.447,8.419
		c2.542,13.553,15.436,28.159,38.611,26.782c23.276-1.398,30.583-8.827,32.206-38.506c0.081-1.359,0.8-2.597,1.92-3.363l2.683-1.98
		c0.717-0.481,1.027-1.3,1.027-2.169v-6.977c0-1.191-0.71-2.222-1.885-2.417c-13.282-2.166-23.314-2.778-37.276-2.367
		c-5.39,0.154-16.03,1.696-22.087,3.932c-7.208,2.675-18.33,6.874-24.635,6.874c-6.275,0-17.471-4.199-24.661-6.874
		c-6.058-2.236-16.761-3.778-22.142-3.932c-13.971-0.41-24.713,0.202-37.985,2.367c-1.185,0.195-2.699,1.226-2.699,2.417v6.977
		C42.155,330.033,43.287,330.851,43.995,331.332z"/>
	<path fill="#DADDE1" d="M145.283,336.233c1.731-10.987,46.217-15.939,53.034-7.63c8.818,10.7,3.35,32.016-2.682,36.695
		c-5.858,4.554-27.42,7.152-36.686,1.474C148.225,360.206,143.379,348.205,145.283,336.233z"/>
	<path fill="#DADDE1" d="M60.987,328.604c6.825-8.309,51.3-3.358,53.04,7.63c1.893,11.972-2.943,23.973-13.666,30.539
		c-9.267,5.678-30.847,3.081-36.704-1.474C57.635,360.619,52.177,339.303,60.987,328.604z"/>
</g>
<path fill="#FFFFFF" d="M170.237,141.074c0-0.654,1.035-1.184,2.327-1.184c1.283,0,2.322,0.53,2.322,1.184
	c0,0.655-1.039,1.186-2.322,1.186C171.273,142.26,170.237,141.729,170.237,141.074z"/>
<path fill="#FFFFFF" d="M34.311,141.077c0-0.657,1.035-1.19,2.328-1.19c1.28,0,2.322,0.533,2.322,1.19
	c0,0.647-1.042,1.185-2.322,1.185C35.346,142.263,34.311,141.725,34.311,141.077z"/>
<g>
	<g>
		<g>
			<path fill="#FFC10E" d="M392.361,252.32c8.927,30.298,2.692,48.931-12.172,53.312c-14.864,4.379-30.204-7.897-39.131-38.195
				c-16.594-56.318-3.419-87.602,1.628-89.089C347.734,176.86,375.767,196.002,392.361,252.32z"/>
		</g>
	</g>
	<g>
		<path fill="#B4CB2D" d="M398.735,266.918c0.446,26.267-6.63,39.671-16.685,39.676c-10.06,0.008-17.584-13.386-18.029-39.652
			c-0.495-29.277,14.252-59.979,16.341-59.982C382.457,206.959,398.24,237.642,398.735,266.918z"/>
		<path fill="#96BB33" d="M343.55,283.178c13.87,22.311,27.082,29.739,35.533,24.291c8.457-5.449,7.518-20.783-6.349-43.094
			c-15.46-24.866-44.498-42.669-46.257-41.539C324.721,223.971,328.093,258.311,343.55,283.178z"/>
	</g>
</g>
<g>
	<path fill="#F9A51A" d="M310.431,147.491c0,21.648-15.662,39.196-44.858,39.196s-44.858-17.548-44.858-39.196
		c0-21.648,15.662-39.195,44.858-39.195S310.431,125.844,310.431,147.491z"/>
	<path fill="#8BC53F" d="M284.669,112.858c-6.815,6.815-19.022,5.658-19.022,5.658s-1.158-12.208,5.657-19.023
		c6.815-6.814,19.022-5.657,19.022-5.657S291.483,106.043,284.669,112.858z"/>
</g>
<g>
	<g>
		<path fill="#8BC53F" d="M397.025,331.817c-8.292,8.08-19.432,3.492-19.432,3.492s-4.297-11.255,3.996-19.336
			c8.295-8.081,22.737-6.71,22.737-6.71S405.32,323.736,397.025,331.817z"/>
		<path fill="#8BC53F" d="M388.497,320.748c-2.514,8.915-13.069,13.742-13.069,13.742s-6.478-9.63-3.963-18.544
			c2.512-8.916,13.065-13.743,13.065-13.743S391.01,311.833,388.497,320.748z"/>
		<path fill="#8BC53F" d="M380.04,321.158c7.245,2.041,11.168,10.616,11.168,10.616s-7.824,5.265-15.069,3.222
			c-7.243-2.041-11.165-10.617-11.165-10.617S372.798,319.114,380.04,321.158z"/>
		<path fill="#8BC53F" d="M377.87,336.77c-1.856-7.293,3.61-14.979,3.61-14.979s8.472,4.145,10.324,11.441
			c1.855,7.294-3.612,14.978-3.612,14.978S379.721,344.065,377.87,336.77z"/>
		<path fill="#8BC53F" d="M396.79,341.939c-8.979,2.283-18.435-4.445-18.435-4.445s5.099-10.426,14.078-12.704
			c8.978-2.284,18.435,4.444,18.435,4.444S405.768,339.66,396.79,341.939z"/>
	</g>
	<circle fill="#90278E" cx="346.894" cy="313.563" r="12.385"/>
	<circle fill="#90278E" cx="366.999" cy="328.034" r="12.386"/>
	<circle fill="#90278E" cx="387.104" cy="342.505" r="12.386"/>
	<circle fill="#90278E" cx="321.887" cy="348.306" r="12.385"/>
	<circle fill="#90278E" cx="341.992" cy="362.777" r="12.386"/>
	<circle fill="#90278E" cx="316.986" cy="397.519" r="12.386"/>
	<circle fill="#90278E" cx="362.097" cy="377.248" r="12.386"/>
	<circle fill="#90278E" cx="324.338" cy="323.699" r="12.385"/>
	<circle fill="#90278E" cx="344.443" cy="338.17" r="12.386"/>
	<circle fill="#90278E" cx="364.547" cy="352.641" r="12.385"/>
	<circle fill="#90278E" cx="319.436" cy="372.912" r="12.386"/>
	<circle fill="#90278E" cx="339.541" cy="387.383" r="12.385"/>
	<circle fill="#90278E" cx="384.652" cy="367.112" r="12.386"/>
</g>
<g>
	<g>
		<path fill="#FFCA05" d="M227.253,97.572c3.506,2.133,8.983,7.948,8.983,25.96c0,14.463-15.557,56.269-64.421,61.478
			c-43.293,4.614-63.097-21.126-62.925-26.564c0.082-2.561,0.907-6.209,2.4-7.569c5.528-5.039,41.549,6.002,64.689-3.944
			c24.981-10.737,29.143-43.385,42.804-49.36l-0.513-20.538c0,0,2.581-3.587,8.059-3.367c4.657,0.187,4.369,3.309,3.992,6.346
			C229.938,83.083,227.253,97.572,227.253,97.572z"/>
		<path fill="#E5A812" d="M218.307,76.986c2.702,1.142,5.881,3.216,7.36,3.079c1.007-0.091,2.947-1.071,4.823-2.659
			c-0.064-1.999-0.869-3.607-4.162-3.74C221.068,73.455,218.504,76.723,218.307,76.986z"/>
		<path fill="#E5A812" d="M116.596,152.446c-0.209-0.558-1.977-1.437-4.189-2.221c-0.445,0.182-0.833,0.389-1.119,0.652
			c-1.493,1.36-2.318,5.008-2.4,7.569c-0.008,0.251,0.042,0.56,0.119,0.893c2.035,0.669,4.688,0.8,6.242,0.023
			C116.16,158.908,117.242,154.167,116.596,152.446z"/>
	</g>
</g>
<g>
	
		<rect x="292.015" y="328.291" transform="matrix(0.4577 0.8891 -0.8891 0.4577 472.2988 -73.2506)" fill="#A5CD39" width="8.364" height="44.51"/>
	
		<rect x="293.292" y="335.032" transform="matrix(0.3784 0.9257 -0.9257 0.3784 515.6454 -53.2582)" fill="#8BC53F" width="8.366" height="44.508"/>
	
		<rect x="287.279" y="323.35" transform="matrix(-0.5336 -0.8458 0.8458 -0.5336 154.6734 776.5117)" fill="#8BC53F" width="8.365" height="44.508"/>
	<path fill="#F6921E" d="M179.003,426.656c-6.888,3.546-15.348,0.836-18.894-6.052c-3.546-6.889-0.836-15.348,6.052-18.894
		l87.731-51.951c9.852-5.072,21.95-1.196,27.022,8.656c5.072,9.853,1.196,21.95-8.655,27.021L179.003,426.656z"/>
</g>
</svg>
