<?xml version="1.0" encoding="utf-8"?>
<!-- Generator: Adobe Illustrator 17.0.2, SVG Export Plug-In . SVG Version: 6.00 Build 0)  -->
<!DOCTYPE svg PUBLIC "-//W3C//DTD SVG 1.1//EN" "http://www.w3.org/Graphics/SVG/1.1/DTD/svg11.dtd">
<svg version="1.1" id="Layer_1" xmlns="http://www.w3.org/2000/svg" xmlns:xlink="http://www.w3.org/1999/xlink" x="0px" y="0px"
	 width="564.309px" height="85.014px" viewBox="0 0 564.309 85.014" enable-background="new 0 0 564.309 85.014"
	 xml:space="preserve">
<g>
	<path fill="#CADFB1" d="M285.829,69.668h6.188V34.472h-6.188V24.417h24.985c4.177,0,7.889,0.154,11.061,1.083
		c6.652,2.011,11.061,7.426,11.061,15.548c0,7.271-3.481,12.222-8.973,15.161v0.154c0,0,2.166,0.928,3.404,3.326l4.254,8.199
		c0.696,1.315,1.779,1.779,3.559,1.779h1.934v10.056h-9.128c-4.487,0-6.266-1.083-7.813-4.1l-6.73-12.917
		c-0.928-1.779-1.934-2.398-4.795-2.398h-2.784v9.36h5.801v10.056h-25.836V69.668z M312.129,49.479c4.331,0,7.039-2.166,7.039-7.194
		c0-2.552-0.618-4.951-3.016-6.111c-1.238-0.619-3.017-0.928-5.337-0.928h-4.951v14.233H312.129z"/>
	<path fill="#CADFB1" d="M370.61,23.489c16.863,0,29.085,12.376,29.085,28.233c0,16.244-12.222,28.93-29.085,28.93
		c-16.863,0-29.084-12.686-29.084-28.93C341.526,35.865,353.747,23.489,370.61,23.489z M370.61,68.662
		c8.123,0,14.774-7.271,14.774-16.94c0-9.282-6.652-16.244-14.774-16.244c-8.122,0-14.774,6.961-14.774,16.244
		C355.836,61.391,362.488,68.662,370.61,68.662z"/>
	<path fill="#CADFB1" d="M434.042,23.489c16.863,0,29.085,12.376,29.085,28.233c0,16.244-12.222,28.93-29.085,28.93
		c-16.863,0-29.084-12.686-29.084-28.93C404.958,35.865,417.179,23.489,434.042,23.489z M434.042,68.662
		c8.123,0,14.774-7.271,14.774-16.94c0-9.282-6.652-16.244-14.774-16.244c-8.122,0-14.774,6.961-14.774,16.244
		C419.267,61.391,425.92,68.662,434.042,68.662z"/>
	<path fill="#CADFB1" d="M479.528,69.668h6.188V35.246h-6.575v7.813h-11.602V24.417h50.201v18.642h-11.602v-7.813h-6.575v34.422
		h6.188v10.056h-26.223V69.668z"/>
	<path fill="#CADFB1" d="M534.992,60.076v4.099c0,2.862,3.635,4.487,7.967,4.487c4.331,0,7.425-1.547,7.425-4.487
		c0-4.254-6.111-5.569-11.912-7.89c-7.503-2.862-14.542-6.498-14.542-16.631c0-12.299,10.055-16.167,19.879-16.167
		c9.437,0,18.796,3.558,18.796,10.597v8.199h-12.376v-3.481c0-2.166-2.94-3.326-6.42-3.326c-3.172,0-5.956,0.928-5.956,3.79
		c0,3.79,4.564,5.414,9.591,7.193c8.431,2.94,16.863,6.42,16.863,16.863c0,12.608-10.83,17.327-21.349,17.327
		c-10.288,0-20.344-4.564-20.344-13.459v-7.116H534.992z"/>
</g>
<path fill="#A7CE82" d="M32.303,13.44c-2.581,3.748-1.358,8.484-0.698,13.199c1.533-1.716,1.865-3.047,2.851-4.622
	c1.107-1.769,1.637-3.842,2.553-5.703c-0.039,3.831-0.772,6.794-5.426,13.193c2.354-0.714,5.225-3.363,6.788-5.349
	c1.988-2.526,3.25-5.775,3.992-8.902c0.793-3.342,0.157-9.235-1.594-11.801c1.916,2.808-4.84,6.614-6.494,7.915
	C33.451,12.018,32.805,12.71,32.303,13.44z"/>
<path fill="#A7CE82" d="M22.949,25.367c0.752,1.16,2.058,1.597,3.255,2.194c1.04,0.518,2.092,1.18,3.071,1.681
	c-0.347-2.527,0.67-4.916-0.538-7.293c-1.41-2.774-3.733-3.493-6.409-4.673c0.983,0.434,0.27,2.874,0.113,3.592
	C22.104,22.4,22.044,23.969,22.949,25.367z"/>
<g>
	<path fill="#FFFFFF" d="M71.313,40.392c3.325-7.51,7.053-14.242,11.184-20.196c1.77-2.521,3.687-4.989,5.753-7.402
		c2.064-2.414,4.264-4.573,6.598-6.477c2.334-1.903,4.8-3.432,7.403-4.586c2.601-1.153,5.27-1.73,8.006-1.73
		s4.237,0.939,4.506,2.816c0.268,1.878-0.336,4.345-1.811,7.403c-1.476,3.057-3.621,6.531-6.437,10.42
		c-2.816,3.89-5.888,7.873-9.213,11.948C89.47,42.19,79.627,53.052,67.773,65.174l-2.012-0.643
		c10.782-11.372,19.874-21.536,27.276-30.495c3.164-3.808,6.101-7.549,8.811-11.224c2.708-3.674,4.868-6.946,6.477-9.816
		c1.609-2.869,2.494-5.176,2.655-6.92c0.161-1.743-0.752-2.615-2.736-2.615c-1.985,0-4.077,0.993-6.276,2.977
		c-2.2,1.985-4.373,4.614-6.517,7.886c-2.146,3.272-4.212,7-6.196,11.184c-1.985,4.184-3.755,8.449-5.31,12.793
		c-1.556,4.345-2.844,8.609-3.862,12.793c-1.02,4.184-1.65,7.913-1.891,11.184c-0.241,3.272-0.027,5.901,0.644,7.885
		c0.67,1.985,1.917,2.977,3.742,2.977c0.857,0.108,1.957-0.107,3.299-0.644c1.126-0.429,2.521-1.193,4.184-2.293
		c1.662-1.099,3.674-2.776,6.035-5.029c0.322-0.268,0.616-0.415,0.885-0.443c0.268-0.026,0.495,0.028,0.684,0.161
		c0.187,0.134,0.308,0.336,0.362,0.603c0.053,0.269-0.027,0.537-0.241,0.805c-0.161,0.215-0.617,0.684-1.368,1.408
		c-0.752,0.724-1.73,1.597-2.937,2.615c-1.207,1.019-2.575,2.092-4.103,3.218c-1.529,1.127-3.178,2.173-4.949,3.138
		c-1.77,0.966-3.594,1.757-5.472,2.373c-1.878,0.617-3.729,0.925-5.552,0.925c-2.2,0-3.902-0.616-5.109-1.85
		c-1.207-1.234-2.039-2.897-2.494-4.989c-0.457-2.092-0.591-4.492-0.402-7.201c0.187-2.708,0.564-5.538,1.127-8.489
		c0.563-2.949,1.273-5.9,2.132-8.851C69.515,45.65,70.401,42.914,71.313,40.392z"/>
	<path fill="#FFFFFF" d="M154.672,64.772c0.696,0,0.966,0.376,0.805,1.127c-0.054,0.054-0.416,0.43-1.086,1.126
		c-0.671,0.698-1.597,1.569-2.776,2.615c-1.181,1.046-2.548,2.172-4.104,3.379c-1.556,1.207-3.232,2.321-5.029,3.339
		c-1.798,1.019-3.635,1.878-5.512,2.575c-1.878,0.698-3.729,1.046-5.552,1.046c-1.931,0-3.447-0.63-4.546-1.891
		c-1.1-1.259-1.919-2.668-2.454-4.224c-0.536-1.555-0.872-2.99-1.006-4.305c-0.134-1.314-0.201-2.052-0.201-2.213
		c-0.161,0.161-0.873,0.899-2.132,2.213c-1.261,1.315-2.83,2.749-4.707,4.305c-1.878,1.556-3.956,2.965-6.235,4.224
		c-2.281,1.261-4.52,1.891-6.719,1.891c-2.361,0-4.238-0.469-5.632-1.408c-1.396-0.938-2.334-2.212-2.817-3.822
		c-0.483-1.609-0.523-3.472-0.12-5.592c0.402-2.118,1.207-4.345,2.414-6.679c1.207-2.333,2.817-4.693,4.828-7.081
		c2.012-2.386,4.412-4.679,7.201-6.879c2.95-2.36,5.806-4.13,8.569-5.31c2.762-1.18,5.351-1.984,7.765-2.414
		c2.145-0.375,4.104-0.495,5.874-0.362c1.77,0.134,3.218,0.389,4.345,0.764c1.126,0.376,1.917,0.819,2.373,1.327
		c0.455,0.51,0.495,0.953,0.121,1.327c-0.483,0.43-0.873,0.617-1.167,0.564c-0.296-0.053-0.684-0.201-1.166-0.443
		c-0.483-0.241-1.154-0.495-2.012-0.764c-0.859-0.268-2.092-0.402-3.701-0.402c-1.503,0-3.138,0.336-4.908,1.006
		c-1.77,0.671-3.528,1.583-5.27,2.736c-1.744,1.154-3.407,2.508-4.988,4.063c-1.583,1.557-2.937,3.192-4.064,4.908
		c-1.717,2.575-2.803,4.842-3.259,6.799c-0.456,1.959-0.537,3.621-0.241,4.989c0.294,1.368,0.871,2.401,1.73,3.098
		c0.857,0.698,1.77,1.046,2.736,1.046c1.77,0,3.432-0.536,4.989-1.609c1.555-1.073,3.003-2.4,4.345-3.983
		c1.34-1.582,2.575-3.299,3.701-5.15c1.127-1.85,2.173-3.566,3.138-5.149c0.965-1.582,1.85-2.897,2.655-3.943
		c0.805-1.046,1.555-1.569,2.253-1.569c0.697,0,1.153,0.577,1.368,1.73c0.214,1.154,0.362,2.575,0.443,4.264
		c0.081,1.689,0.147,3.54,0.201,5.552c0.053,2.012,0.241,3.862,0.563,5.552c0.322,1.69,0.857,3.112,1.609,4.265
		c0.75,1.154,1.85,1.73,3.299,1.73c1.072,0,2.145-0.228,3.219-0.684c1.072-0.455,2.064-0.978,2.977-1.569
		c0.966-0.644,1.931-1.394,2.897-2.253l3.621-3.138C153.679,65.013,154.135,64.772,154.672,64.772z"/>
	<path fill="#FFFFFF" d="M212.765,64.772c0.697,0,0.966,0.376,0.805,1.127c-0.054,0.054-0.416,0.43-1.086,1.126
		c-0.671,0.698-1.597,1.569-2.776,2.615c-1.18,1.046-2.548,2.172-4.103,3.379c-1.557,1.207-3.233,2.321-5.029,3.339
		c-1.798,1.019-3.635,1.878-5.512,2.575c-1.878,0.698-3.729,1.046-5.552,1.046c-1.985,0-3.474-0.59-4.466-1.77
		c-0.993-1.18-1.65-2.641-1.971-4.385c-0.322-1.742-0.416-3.647-0.282-5.712c0.133-2.064,0.308-3.969,0.523-5.713
		c0.213-1.743,0.402-3.205,0.563-4.385c0.161-1.18,0.08-1.77-0.241-1.77c-0.483,0-1.194,0.591-2.132,1.77
		c-0.939,1.18-2.052,2.642-3.339,4.385c-1.287,1.744-2.683,3.649-4.184,5.713c-1.503,2.066-3.071,3.97-4.707,5.712
		c-1.637,1.744-3.273,3.206-4.908,4.385c-1.637,1.18-3.206,1.77-4.707,1.77c-1.448,0-2.655-0.348-3.621-1.046
		c-0.965-0.697-1.717-1.636-2.253-2.816c-0.536-1.18-0.899-2.507-1.086-3.983c-0.189-1.475-0.282-2.99-0.282-4.546
		c0.053-3.647,0.59-7.805,1.609-12.472c0.751-2.949,1.851-5.605,3.299-7.966c0.643-1.018,1.38-2.012,2.212-2.977
		c0.831-0.966,1.797-1.823,2.897-2.575c1.099-0.75,2.346-1.354,3.742-1.81c1.394-0.455,2.949-0.684,4.667-0.684
		c2.038,0,3.231,0.523,3.581,1.569c0.348,1.046,0.147,2.414-0.604,4.103c-0.752,1.69-1.919,3.568-3.5,5.632
		c-1.583,2.066-3.286,4.144-5.109,6.236c0.213,1.61,0.483,3.152,0.805,4.627c0.322,1.476,0.697,2.776,1.127,3.902
		c0.429,1.127,0.871,2.039,1.327,2.736c0.455,0.698,0.898,1.046,1.327,1.046c0.483,0,1.3-0.737,2.454-2.213
		c1.153-1.475,2.494-3.312,4.023-5.512c1.529-2.199,3.164-4.586,4.908-7.161c1.743-2.575,3.46-4.961,5.15-7.161
		c1.69-2.199,3.285-4.035,4.787-5.511c1.501-1.475,2.736-2.213,3.701-2.213c0.857,0,1.461,0.483,1.81,1.448
		c0.348,0.966,0.523,2.253,0.523,3.862c0,1.609-0.108,3.419-0.322,5.431c-0.215,2.012-0.457,4.091-0.724,6.236
		c-0.269,2.146-0.483,4.224-0.644,6.236c-0.161,2.012-0.189,3.822-0.08,5.431c0.107,1.609,0.415,2.896,0.925,3.862
		c0.509,0.966,1.3,1.448,2.373,1.448c1.073,0,2.145-0.228,3.219-0.684c1.072-0.455,2.064-0.978,2.977-1.569
		c0.965-0.644,1.931-1.394,2.896-2.253l3.621-3.138C211.772,65.013,212.228,64.772,212.765,64.772z M170.603,40.955
		c-1.073,0-1.985,0.376-2.736,1.126c-0.752,0.752-1.341,1.744-1.77,2.977c-0.43,1.235-0.712,2.643-0.845,4.224
		c-0.134,1.583-0.12,3.232,0.04,4.949c1.448-1.662,2.776-3.299,3.983-4.908s2.132-3.03,2.776-4.264
		c0.644-1.233,0.885-2.225,0.724-2.977C172.615,41.331,171.89,40.955,170.603,40.955z"/>
	<path fill="#FFFFFF" d="M270.617,65.898c-0.054,0.054-0.416,0.43-1.087,1.126c-0.671,0.698-1.596,1.569-2.776,2.615
		c-1.18,1.046-2.548,2.172-4.103,3.379c-1.556,1.207-3.232,2.321-5.029,3.339c-1.798,1.019-3.635,1.878-5.512,2.575
		c-1.878,0.698-3.729,1.046-5.552,1.046c-1.663,0-3.005-0.483-4.023-1.448c-1.02-0.966-1.824-2.092-2.414-3.379
		c-0.698-0.911-1.261-1.917-1.689-3.017c-0.43-1.099-0.724-2.427-0.885-3.983c-0.643,0.698-1.623,1.703-2.937,3.017
		c-1.315,1.315-2.844,2.629-4.586,3.943c-1.744,1.315-3.608,2.454-5.592,3.419c-1.985,0.966-3.943,1.448-5.874,1.448
		c-2.361,0-4.238-0.469-5.633-1.408c-1.396-0.938-2.333-2.212-2.816-3.822c-0.483-1.609-0.523-3.472-0.12-5.592
		c0.402-2.118,1.207-4.345,2.414-6.679c1.207-2.333,2.816-4.693,4.828-7.081c2.012-2.386,4.412-4.679,7.202-6.879
		c2.736-2.199,5.391-3.875,7.966-5.029c2.575-1.153,4.989-1.971,7.241-2.454c0.053,0,0.322-0.04,0.805-0.12
		c0.483-0.081,0.777,0.068,0.885,0.442c0.053,0.43-0.241,0.832-0.885,1.207c-1.287,0.537-2.615,1.247-3.983,2.132
		c-1.368,0.885-2.71,1.891-4.023,3.017c-1.315,1.126-2.548,2.307-3.701,3.54c-1.154,1.235-2.132,2.468-2.937,3.701
		c-1.663,2.575-2.735,4.882-3.218,6.92c-0.483,2.039-0.577,3.769-0.282,5.19c0.294,1.422,0.898,2.508,1.81,3.259
		c0.911,0.752,1.931,1.126,3.057,1.126c2.038,0,3.902-0.67,5.592-2.012c1.69-1.34,3.285-2.949,4.787-4.828
		c0.053-1.931,0.348-4.144,0.885-6.638c0.536-2.494,1.368-5.351,2.494-8.569c2.253-6.437,4.935-12.632,8.046-18.587
		c3.11-5.954,6.503-11.211,10.178-15.77c3.673-4.559,7.563-8.207,11.667-10.943C274.921,1.368,279.118,0,283.41,0
		c1.716,0,2.748,0.496,3.098,1.489c0.348,0.993,0.213,2.347-0.402,4.063c-0.617,1.717-1.663,3.729-3.138,6.035
		c-1.476,2.307-3.192,4.801-5.15,7.483c-1.959,2.683-4.103,5.459-6.437,8.328c-2.334,2.87-4.654,5.726-6.96,8.569
		c-2.307,2.844-4.56,5.592-6.759,8.247c-2.2,2.655-4.131,5.109-5.793,7.362c-0.913,2.79-1.422,5.338-1.529,7.644
		c-0.108,2.307-0.08,4.158,0.08,5.552c0.107,0.43,0.174,0.818,0.201,1.167c0.027,0.35,0.093,0.684,0.201,1.006v0.241
		c0,0.054,0.026,0.08,0.08,0.08v0.081c0.268,1.717,0.777,3.112,1.529,4.184c0.751,1.074,1.851,1.609,3.299,1.609
		c1.073,0,2.145-0.228,3.219-0.684c1.073-0.455,2.064-0.978,2.977-1.569c1.018-0.644,2.012-1.394,2.977-2.253l3.54-3.138
		c0.375-0.483,0.831-0.724,1.368-0.724C270.509,64.772,270.777,65.148,270.617,65.898z M254.846,44.817
		c2.414-3.271,4.935-6.57,7.563-9.897c2.628-3.326,5.15-6.53,7.563-9.615c2.414-3.084,4.627-5.967,6.638-8.65
		c2.012-2.682,3.633-5.015,4.868-7c1.233-1.984,1.957-3.553,2.173-4.707c0.213-1.153-0.241-1.73-1.368-1.73
		c-1.663,0-3.313,0.577-4.949,1.73c-1.637,1.154-3.272,2.723-4.908,4.707c-1.637,1.985-3.246,4.319-4.828,7
		c-1.583,2.683-3.112,5.566-4.587,8.65c-1.476,3.085-2.91,6.29-4.305,9.615C257.313,38.247,256.025,41.546,254.846,44.817z"/>
	<path fill="#FFFFFF" d="M62.203,38.512c0.509-1.287,0.469-2.306-0.121-3.057c-0.591-0.75-1.959-1.127-4.104-1.127
		c-3.97,0-7.108,0.577-9.414,1.73c-2.307,1.154-4.051,2.562-5.23,4.224c-1.18,1.663-1.891,3.42-2.132,5.27
		c-0.241,1.85-0.255,3.447-0.04,4.787c0.161,0.966,0.482,1.931,0.965,2.897c0.483,0.965,1.018,1.931,1.609,2.896l-4.426,4.265
		c-0.016,0.016-0.027,0.033-0.042,0.049c0,0-1.661,1.394-2.243,1.823c-1.245,0.918-2.537,1.716-3.877,2.359
		c-1.126,0.591-2.333,1.114-3.621,1.569c-1.287,0.456-2.468,0.684-3.54,0.684c-1.074,0-1.744-0.483-2.012-1.448
		c-0.269-0.966-0.282-2.253-0.04-3.862c0.241-1.609,0.684-3.42,1.327-5.431c0.644-2.012,1.34-4.09,2.092-6.236
		c0.751-2.145,1.475-4.224,2.173-6.236c0.697-2.012,1.22-3.822,1.569-5.431c0.348-1.61,0.469-2.897,0.362-3.862
		c-0.108-0.965-0.591-1.448-1.448-1.448c-2.039,0-4.117,0.899-6.236,2.695c-2.12,1.798-4.359,4.064-6.719,6.799
		c-2.361,2.736-4.895,5.727-7.604,8.972c-2.709,3.246-5.646,6.344-8.811,9.293C0.213,61.062,0,61.384,0,61.652
		c0,0.269,0.12,0.47,0.362,0.603c0.241,0.135,0.55,0.161,0.925,0.081c0.374-0.081,0.75-0.308,1.126-0.684
		c0.161-0.161,0.777-0.805,1.851-1.931c1.072-1.126,2.305-2.454,3.701-3.983c1.394-1.529,2.869-3.15,4.426-4.868
		c1.555-1.716,2.896-3.245,4.023-4.586c0.214,0,0.201,0.39-0.04,1.166c-0.241,0.778-0.617,1.811-1.127,3.098
		c-0.51,1.287-1.073,2.763-1.69,4.425c-0.617,1.664-1.154,3.34-1.609,5.029c-0.456,1.69-0.778,3.367-0.966,5.029
		c-0.189,1.664-0.108,3.138,0.241,4.426c0.348,1.287,1.032,2.321,2.052,3.098c1.018,0.778,2.521,1.167,4.506,1.167
		c1.823,0,3.701-0.348,5.633-1.046c1.931-0.697,3.822-1.555,5.672-2.575c1.851-1.018,3.593-2.132,5.23-3.339
		c1.636-1.207,3.131-1.995,4.392-3.041c0.543-0.45,0.904-0.805,1.389-1.25c0.408-0.375,0.592-0.554,0.824-0.785l3.782-3.782
		c0.911,1.609,1.756,3.299,2.535,5.069c0.777,1.77,1.112,3.675,1.006,5.713c-0.054,1.878-0.376,3.474-0.966,4.787
		c-0.591,1.315-1.261,2.4-2.012,3.259c-0.752,0.857-1.476,1.515-2.173,1.971c-0.698,0.455-1.18,0.791-1.448,1.006
		c-0.269,0.213-0.805,0.483-1.609,0.804c-0.804,0.322-1.65,0.469-2.535,0.443c-0.885-0.028-1.703-0.35-2.454-0.966
		c-0.752-0.617-1.233-1.784-1.448-3.5c0-0.322-0.147-0.563-0.442-0.724c-0.294-0.161-0.604-0.215-0.926-0.161
		c-0.322,0.053-0.59,0.213-0.804,0.482c-0.214,0.268-0.241,0.697-0.081,1.288c0.376,1.287,1.046,2.601,2.012,3.942
		c0.966,1.34,2.253,2.346,3.863,3.017c1.609,0.67,3.58,0.845,5.914,0.523c2.334-0.322,5.055-1.476,8.167-3.46
		c3.164-1.985,5.471-4.091,6.919-6.317c1.449-2.225,2.387-4.331,2.817-6.316c0.429-1.984,0.509-3.754,0.241-5.31
		c-0.269-1.555-0.537-2.655-0.805-3.299c-0.322-0.643-0.698-1.408-1.126-2.293c-0.43-0.885-0.913-1.837-1.448-2.856
		c-0.537-1.018-1.086-2.052-1.649-3.098c-0.563-1.046-1.141-2.052-1.73-3.017c1.823-2.092,3.432-4.023,4.828-5.793
		C60.741,41.328,61.693,39.799,62.203,38.512z M57.134,42.656c-1.046,1.315-2.321,2.749-3.822,4.305
		c-0.752-1.287-1.18-2.561-1.287-3.822c-0.108-1.259,0.013-2.414,0.362-3.46c0.348-1.046,0.925-1.891,1.73-2.535
		c0.805-0.644,1.743-0.966,2.816-0.966c1.287,0,2.105,0.269,2.454,0.805c0.348,0.537,0.322,1.287-0.08,2.253
		C58.904,40.202,58.18,41.342,57.134,42.656z"/>
</g>
</svg>
