<?xml version="1.0" encoding="utf-8"?>
<!-- Generator: Adobe Illustrator 17.0.2, SVG Export Plug-In . SVG Version: 6.00 Build 0)  -->
<!DOCTYPE svg PUBLIC "-//W3C//DTD SVG 1.1//EN" "http://www.w3.org/Graphics/SVG/1.1/DTD/svg11.dtd">
<svg version="1.1" id="Layer_1" xmlns="http://www.w3.org/2000/svg" xmlns:xlink="http://www.w3.org/1999/xlink" x="0px" y="0px"
	 width="486.79px" height="424.149px" viewBox="0 0 486.79 424.149" enable-background="new 0 0 486.79 424.149"
	 xml:space="preserve">
<g>
	<path fill="#89D0C7" d="M234.29,424.344c-116.992,0-212.172-95.18-212.172-212.172S117.297,0,234.29,0
		c116.992,0,212.171,95.18,212.171,212.172S351.281,424.344,234.29,424.344z M234.29,3C118.952,3,25.118,96.834,25.118,212.172
		s93.834,209.172,209.172,209.172c115.337,0,209.171-93.834,209.171-209.172S349.627,3,234.29,3z"/>
</g>
<g>
	<g>
		<path fill="#851F83" d="M262.827,90.767c5.008-20.371,25.583-32.826,45.957-27.817c20.371,5.008,32.826,25.583,27.818,45.954
			l-19.367,116.85c-6.207,25.248-31.705,40.684-56.952,34.477c-25.249-6.207-40.683-31.707-34.475-56.955L262.827,90.767z"/>
		<path fill="#8DC63F" d="M320.797,82.424c-3.773,15.347-22.37,22.643-22.368,22.642c0,0-13.092-15.084-9.319-30.432
			c2.78-11.309,12.128-18.732,20.877-16.581C318.736,60.204,323.577,71.115,320.797,82.424z"/>
		<g>
			<path fill="#8DC63F" d="M338.416,75.445c4.405,15.178-8.052,30.796-8.051,30.792c0,0-18.88-6.514-23.287-21.694
				c-3.246-11.183,1.137-22.285,9.79-24.798C325.522,57.233,335.169,64.262,338.416,75.445z"/>
			<path fill="#8DC63F" d="M276.734,60.281c-10.941,11.405-7.146,31.018-7.145,31.015c0,0,19.749,2.983,30.692-8.424
				c8.062-8.403,9.325-20.272,2.825-26.511C296.603,50.123,284.795,51.877,276.734,60.281z"/>
		</g>
		
			<rect x="304.797" y="34.813" transform="matrix(0.9711 0.2387 -0.2387 0.9711 22.4309 -72.4759)" fill="#8DC63F" width="11.212" height="43.092"/>
	</g>
	<g>
		<path fill="#851F83" d="M100.005,355.467v21.055c0,4.022-3.259,7.281-7.28,7.281c-4.022,0-7.282-3.259-7.282-7.281v-21.055
			H100.005z"/>
		<path fill="#8DC63F" d="M116.338,179.66c-0.741,0-1.469,0.045-2.192,0.111c1.394-3.013,2.192-6.356,2.192-9.893
			c0-13.041-10.572-23.613-23.614-23.613c-13.04,0-23.612,10.573-23.612,23.613c0,3.537,0.798,6.88,2.192,9.893
			c-0.723-0.066-1.452-0.111-2.192-0.111c-13.042,0-23.614,10.573-23.614,23.613c0,13.042,10.572,23.614,23.614,23.614
			c7.272,0,13.771-3.292,18.103-8.461v50.572h11.019v-50.576c4.331,5.171,10.831,8.465,18.104,8.465
			c13.042,0,23.614-10.572,23.614-23.614C139.952,190.233,129.38,179.66,116.338,179.66z"/>
		<circle fill="#993F98" cx="92.725" cy="313.286" r="56.349"/>
	</g>
	<g>
		<g>
			<path fill="#8DC63F" d="M290.051,306.192c0,8.045-4.876,14.569-10.891,14.569c-6.015,0-10.891-6.524-10.891-14.569
				c0-13.051,10.892-18.325,10.891-18.323C279.159,287.867,290.051,293.142,290.051,306.192z"/>
			<path fill="#8DC63F" d="M281.308,302.699c4.022,6.966,3.061,15.055-2.148,18.063c-5.21,3.008-12.694-0.204-16.718-7.173
				c-6.524-11.302,0.272-21.315,0.272-21.313C262.712,292.276,274.782,291.395,281.308,302.699z"/>
			<path fill="#8DC63F" d="M295.876,313.589c-4.022,6.969-11.508,10.181-16.716,7.173c-5.21-3.008-6.17-11.097-2.147-18.063
				c6.524-11.303,18.595-10.423,18.593-10.423C295.606,292.273,302.401,302.287,295.876,313.589z"/>
		</g>
		<path fill="#ED1C24" d="M296.704,304.315c-6.316,0-28.771,0-35.088,0c-21.58,0-39.076,17.494-39.076,39.075
			c0,21.581,17.496,39.075,39.076,39.075c6.317,0,28.772,0,35.088,0c21.581,0,39.075-17.494,39.075-39.075
			C335.779,321.809,318.285,304.315,296.704,304.315z"/>
	</g>
	<g>
		<ellipse fill="#67AE3E" cx="173.189" cy="230.157" rx="29.752" ry="18.132"/>
		<path fill="none" stroke="#67AE3E" stroke-width="4" stroke-linecap="round" stroke-linejoin="round" stroke-miterlimit="10" d="
			M173.189,226.334c0-14.312,2.199-35.748,17.36-48.233"/>
		<g>
			<path fill="#FFCB05" d="M164.166,316.919c1.034,11.828-7.716,22.257-19.545,23.29c-11.828,1.036-22.256-7.714-23.29-19.544
				l-6.642-75.903c-1.035-11.829,7.715-22.257,19.543-23.293c11.83-1.034,22.258,7.716,23.292,19.544L164.166,316.919z"/>
			<path fill="#FFCB05" d="M225.048,320.665c-1.033,11.83-11.462,20.58-23.29,19.544c-11.829-1.033-20.579-11.462-19.545-23.29
				l6.642-75.905c1.034-11.828,11.462-20.578,23.292-19.544c11.828,1.036,20.578,11.464,19.543,23.293L225.048,320.665z"/>
		</g>
		<path fill="#FFDD00" d="M194.69,318.71c0,11.874-9.626,21.499-21.501,21.499c-11.874,0-21.5-9.624-21.5-21.499v-76.195
			c0-11.873,9.626-21.499,21.5-21.499c11.874,0,21.501,9.626,21.501,21.499V318.71z"/>
	</g>
	<g>
		<g>
			<g>
				<path fill="#FFC20E" d="M275.412,197.424c0,41.353-14.726,62.446-35.013,62.448c-20.288-0.001-35.01-21.095-35.01-62.448
					c0-76.868,28.122-111.281,35.01-111.281C247.29,86.144,275.412,120.557,275.412,197.424z"/>
			</g>
		</g>
		<g>
			<path fill="#B5CC2D" d="M278.016,218.115c-9.16,33.152-23.005,47.367-35.635,43.654c-12.637-3.713-17.129-23.317-7.969-56.469
				c10.212-36.95,40.092-70.052,42.718-69.281C279.759,136.792,288.228,181.166,278.016,218.115z"/>
			<path fill="#96BC33" d="M202.694,218.115c9.163,33.152,23.006,47.369,35.636,43.655c12.637-3.714,17.131-23.318,7.973-56.47
				c-10.214-36.949-40.094-70.052-42.722-69.283C200.956,136.792,192.484,181.166,202.694,218.115z"/>
		</g>
	</g>
	<g>
		<path fill="#A6CE39" d="M124.936,280.96c-15.408-2.025-30.444-10.174-27.634-31.55c2.044-15.55,13.609-25.664,15.893-43.043
			c2.284-17.379-28.83-28.449-24.261-63.209c3.908-29.731,33.561-50.025,60.229-46.52c26.668,3.505,50.069,30.772,46.162,60.503
			c-4.569,34.76-37.486,37.414-39.771,54.793s6.275,30.138,4.231,45.688C156.975,278.999,140.344,282.986,124.936,280.96z"/>
		
			<line fill="none" stroke="#67AE3E" stroke-width="2" stroke-linecap="round" stroke-linejoin="round" stroke-miterlimit="10" x1="119.375" y1="323.266" x2="143.111" y2="142.674"/>
		<path fill="none" stroke="#67AE3E" stroke-width="2" stroke-linecap="round" stroke-linejoin="round" stroke-miterlimit="10" d="
			M140.217,250.412c-0.804,6.116-6.414,10.423-12.531,9.619c-6.118-0.804-10.425-6.415-9.621-12.531"/>
		<path fill="none" stroke="#67AE3E" stroke-width="2" stroke-linecap="round" stroke-linejoin="round" stroke-miterlimit="10" d="
			M145.403,225.114c-0.937,7.127-7.474,12.146-14.601,11.21c-7.127-0.937-12.146-7.475-11.209-14.602"/>
		<path fill="none" stroke="#67AE3E" stroke-width="2" stroke-linecap="round" stroke-linejoin="round" stroke-miterlimit="10" d="
			M151.108,199.419c-1.103,8.39-8.799,14.297-17.189,13.195c-8.39-1.103-14.299-8.799-13.196-17.188"/>
		<path fill="none" stroke="#67AE3E" stroke-width="2" stroke-linecap="round" stroke-linejoin="round" stroke-miterlimit="10" d="
			M161.298,168.313c-1.538,11.704-12.272,19.946-23.977,18.408c-11.704-1.538-19.946-12.274-18.407-23.978"/>
		<path fill="none" stroke="#67AE3E" stroke-width="2" stroke-linecap="round" stroke-linejoin="round" stroke-miterlimit="10" d="
			M170.907,133.728c-1.9,14.453-15.154,24.628-29.608,22.729c-14.453-1.9-24.629-15.155-22.729-29.608"/>
	</g>
	<g>
		<path fill="#A6CE39" d="M98.752,280.668c-15.258,2.951-32.099-0.025-36.193-21.192c-2.978-15.398,4.795-28.651,1.466-45.86
			c-3.329-17.21-36.347-17.873-43.004-52.294c-5.694-29.441,16.02-58.071,42.428-63.178c26.408-5.108,57.231,13.361,62.925,42.801
			c6.658,34.421-23.732,47.348-20.403,64.558c3.329,17.21,15.483,26.608,18.462,42.006
			C128.527,268.676,114.011,277.717,98.752,280.668z"/>
		
			<line fill="none" stroke="#67AE3E" stroke-width="2" stroke-linecap="round" stroke-linejoin="round" stroke-miterlimit="10" x1="106.855" y1="322.561" x2="72.266" y2="143.73"/>
		<path fill="none" stroke="#67AE3E" stroke-width="2" stroke-linecap="round" stroke-linejoin="round" stroke-miterlimit="10" d="
			M103.589,246.855c1.171,6.056-2.789,11.917-8.846,13.088c-6.058,1.172-11.918-2.789-13.089-8.845"/>
		<path fill="none" stroke="#67AE3E" stroke-width="2" stroke-linecap="round" stroke-linejoin="round" stroke-miterlimit="10" d="
			M100.51,221.215c1.365,7.058-3.249,13.886-10.307,15.251c-7.058,1.365-13.886-3.25-15.251-10.308"/>
		<path fill="none" stroke="#67AE3E" stroke-width="2" stroke-linecap="round" stroke-linejoin="round" stroke-miterlimit="10" d="
			M97.797,195.035c1.607,8.308-3.827,16.346-12.135,17.953c-8.309,1.607-16.348-3.826-17.955-12.134"/>
		<path fill="none" stroke="#67AE3E" stroke-width="2" stroke-linecap="round" stroke-linejoin="round" stroke-miterlimit="10" d="
			M97.628,162.303c2.242,11.59-5.335,22.803-16.926,25.045c-11.59,2.242-22.803-5.337-25.045-16.927"/>
		<path fill="none" stroke="#67AE3E" stroke-width="2" stroke-linecap="round" stroke-linejoin="round" stroke-miterlimit="10" d="
			M95.807,126.454c2.768,14.312-6.588,28.157-20.901,30.925c-14.312,2.768-28.158-6.589-30.926-20.901"/>
	</g>
	<g>
		
			<rect x="166.256" y="37.722" transform="matrix(0.9865 -0.1636 0.1636 0.9865 -8.3114 28.9153)" fill="#A6CE39" width="10.218" height="54.374"/>
		
			<rect x="174.571" y="38.757" transform="matrix(0.997 -0.0769 0.0769 0.997 -4.5395 14.0147)" fill="#8DC63F" width="10.22" height="54.372"/>
		
			<rect x="158.737" y="41.383" transform="matrix(-0.9685 0.2491 -0.2491 -0.9685 339.6095 94.1608)" fill="#8DC63F" width="10.219" height="54.372"/>
		<path fill="#F7941E" d="M216.064,229.661c1.549,9.337-4.766,18.162-14.102,19.711c-9.338,1.549-18.162-4.766-19.711-14.102
			l-27.619-121.453c-2.215-13.354,6.815-25.975,20.17-28.19c13.355-2.215,25.975,6.815,28.19,20.169L216.064,229.661z"/>
	</g>
	<g>
		<rect x="10.699" y="134.139" fill="#9A7E53" width="51.886" height="261.788"/>
		<rect x="328.918" y="134.139" fill="#9A7E53" width="51.886" height="261.788"/>
		<rect y="334.608" fill="#CCB28B" width="391.504" height="61.32"/>
		<rect y="234.374" fill="#CCB28B" width="391.504" height="61.32"/>
		<rect y="134.139" fill="#CCB28B" width="391.504" height="61.32"/>
	</g>
</g>
<g>
	<g>
		
			<rect x="317.988" y="148.313" transform="matrix(0.9922 0.1245 -0.1245 0.9922 33.2841 -47.4818)" fill="#E6F3ED" width="157.049" height="188.46"/>
		<path fill="#CAE8E0" d="M463.184,346.449l-0.562-0.071l-156.388-19.624l0.071-0.562l23.535-187.554l0.561,0.07l156.388,19.624
			l-0.071,0.561L463.184,346.449z M307.498,325.772l154.704,19.413l23.324-185.871l-154.703-19.413L307.498,325.772z"/>
	</g>
	<g>
		
			<rect x="354.047" y="164.642" transform="matrix(0.9923 0.1241 -0.1241 0.9923 24.2328 -49.7441)" fill="#B8E2DF" width="114.607" height="9.945"/>
		
			<rect x="352.098" y="180.223" transform="matrix(0.9923 0.1241 -0.1241 0.9923 26.1517 -49.3817)" fill="#B8E2DF" width="114.607" height="9.945"/>
		
			<rect x="350.149" y="195.804" transform="matrix(0.9923 0.1241 -0.1241 0.9923 28.0705 -49.0193)" fill="#B8E2DF" width="114.607" height="9.945"/>
		
			<rect x="348.2" y="211.386" transform="matrix(0.9923 0.1241 -0.1241 0.9923 29.9893 -48.657)" fill="#B8E2DF" width="114.607" height="9.945"/>
		
			<rect x="346.251" y="226.967" transform="matrix(0.9923 0.1241 -0.1241 0.9923 31.9081 -48.2946)" fill="#B8E2DF" width="114.607" height="9.945"/>
		
			<rect x="344.302" y="242.548" transform="matrix(0.9923 0.1241 -0.1241 0.9923 33.8269 -47.9322)" fill="#B8E2DF" width="114.607" height="9.945"/>
		
			<rect x="342.158" y="259.687" transform="matrix(0.9923 0.1241 -0.1241 0.9923 35.9376 -47.5336)" fill="#B8E2DF" width="114.607" height="9.945"/>
		
			<rect x="340.209" y="275.268" transform="matrix(0.9923 0.1241 -0.1241 0.9923 37.8564 -47.1712)" fill="#B8E2DF" width="114.607" height="9.945"/>
		
			<rect x="338.26" y="290.849" transform="matrix(0.9923 0.1241 -0.1241 0.9923 39.7752 -46.8088)" fill="#B8E2DF" width="114.607" height="9.945"/>
		
			<rect x="336.311" y="306.43" transform="matrix(0.9923 0.1241 -0.1241 0.9923 41.694 -46.4465)" fill="#B8E2DF" width="114.607" height="9.945"/>
	</g>
	<g>
		<rect x="297.911" y="126.085" fill="#E6F3ED" width="157.049" height="188.46"/>
		<path fill="#CAE8E0" d="M455.525,315.111h-158.18V125.519h158.18V315.111z M298.477,313.979h155.917V126.65H298.477V313.979z"/>
	</g>
	<g>
		<path fill="#68BB5E" d="M321.668,164.353v-19.346h8.883c0.944,0,1.816,0.196,2.615,0.586c0.8,0.391,1.485,0.899,2.057,1.526
			c0.573,0.627,1.022,1.344,1.349,2.153c0.327,0.809,0.491,1.621,0.491,2.439c0,1.127-0.245,2.176-0.736,3.147
			c-0.49,0.972-1.171,1.767-2.043,2.384l4.087,7.112h-5.995l-3.406-5.94h-1.989v5.94H321.668z M326.981,153.78h3.352
			c0.327,0,0.631-0.181,0.912-0.545c0.281-0.363,0.422-0.872,0.422-1.526c0-0.672-0.163-1.186-0.49-1.54
			c-0.327-0.354-0.654-0.531-0.981-0.531h-3.216V153.78z"/>
		<path fill="#68BB5E" d="M353.847,159.721v4.632H340.06v-19.346h13.542v4.633h-8.229v2.725h7.03v4.305h-7.03v3.052H353.847z"/>
		<path fill="#68BB5E" d="M354.964,154.516c0-1.181,0.222-2.344,0.667-3.488c0.445-1.144,1.094-2.171,1.949-3.079
			c0.854-0.908,1.889-1.644,3.106-2.207c1.216-0.563,2.606-0.844,4.169-0.844c1.871,0,3.492,0.386,4.864,1.158
			c1.371,0.772,2.393,1.794,3.066,3.065l-4.06,2.888c-0.182-0.472-0.423-0.863-0.723-1.171c-0.3-0.309-0.631-0.554-0.994-0.736
			c-0.363-0.181-0.74-0.309-1.131-0.382c-0.391-0.072-0.767-0.109-1.131-0.109c-0.763,0-1.421,0.15-1.975,0.45
			c-0.554,0.3-1.008,0.69-1.362,1.171c-0.354,0.482-0.618,1.027-0.791,1.635c-0.173,0.609-0.258,1.212-0.258,1.812
			c0,0.672,0.099,1.317,0.3,1.935c0.2,0.618,0.49,1.162,0.872,1.635c0.382,0.473,0.849,0.849,1.403,1.131
			c0.554,0.281,1.176,0.422,1.866,0.422c0.363,0,0.736-0.041,1.118-0.123c0.381-0.082,0.749-0.218,1.104-0.409
			c0.354-0.19,0.672-0.436,0.954-0.736c0.281-0.3,0.503-0.667,0.667-1.104l4.332,2.589c-0.291,0.709-0.732,1.344-1.321,1.907
			c-0.591,0.563-1.263,1.035-2.017,1.417c-0.754,0.382-1.562,0.672-2.425,0.872c-0.863,0.2-1.703,0.3-2.52,0.3
			c-1.435,0-2.748-0.286-3.937-0.858s-2.216-1.33-3.079-2.275c-0.863-0.945-1.531-2.017-2.003-3.215
			C355.2,156.969,354.964,155.752,354.964,154.516z"/>
		<path fill="#68BB5E" d="M374.855,164.353v-19.346h5.313v19.346H374.855z"/>
		<path fill="#68BB5E" d="M383.492,164.353v-19.346h8.338c0.944,0,1.816,0.196,2.615,0.586c0.799,0.391,1.485,0.899,2.057,1.526
			c0.572,0.627,1.022,1.344,1.349,2.153c0.327,0.809,0.491,1.621,0.491,2.439c0,0.854-0.155,1.685-0.464,2.493
			c-0.309,0.809-0.74,1.526-1.294,2.153c-0.555,0.627-1.226,1.127-2.017,1.499c-0.79,0.373-1.657,0.559-2.602,0.559h-3.161v5.94
			H383.492z M388.805,153.78h2.807c0.327,0,0.631-0.15,0.913-0.45c0.281-0.3,0.422-0.84,0.422-1.621c0-0.799-0.163-1.344-0.49-1.635
			c-0.327-0.291-0.654-0.436-0.981-0.436h-2.671V153.78z"/>
		<path fill="#68BB5E" d="M414.254,159.721v4.632h-13.787v-19.346h13.542v4.633h-8.229v2.725h7.03v4.305h-7.03v3.052H414.254z"/>
		<path fill="#68BB5E" d="M428.45,151.328c-0.545-0.327-1.108-0.618-1.69-0.872c-0.49-0.218-1.04-0.422-1.648-0.613
			c-0.608-0.19-1.204-0.286-1.785-0.286c-0.473,0-0.849,0.073-1.131,0.218c-0.281,0.146-0.422,0.391-0.422,0.736
			c0,0.254,0.082,0.463,0.246,0.627c0.163,0.163,0.399,0.313,0.708,0.45c0.309,0.136,0.686,0.268,1.131,0.395
			c0.445,0.127,0.949,0.281,1.513,0.463c0.889,0.273,1.693,0.573,2.411,0.9c0.718,0.326,1.33,0.713,1.84,1.158
			c0.508,0.445,0.899,0.986,1.172,1.622c0.272,0.636,0.409,1.407,0.409,2.316c0,1.163-0.214,2.139-0.641,2.929
			c-0.426,0.791-0.99,1.421-1.689,1.894c-0.7,0.472-1.489,0.813-2.37,1.022c-0.882,0.209-1.767,0.313-2.657,0.313
			c-0.709,0-1.435-0.055-2.18-0.163c-0.745-0.109-1.485-0.263-2.221-0.464c-0.735-0.2-1.444-0.436-2.125-0.708
			c-0.681-0.273-1.312-0.581-1.893-0.926l2.288-4.659c0.636,0.399,1.299,0.753,1.989,1.062c0.581,0.272,1.24,0.517,1.975,0.736
			c0.736,0.218,1.485,0.327,2.248,0.327c0.581,0,0.985-0.077,1.213-0.232c0.227-0.154,0.34-0.359,0.34-0.613
			c0-0.272-0.113-0.503-0.34-0.695c-0.228-0.19-0.541-0.359-0.94-0.504c-0.4-0.145-0.858-0.29-1.377-0.436
			c-0.517-0.146-1.067-0.318-1.648-0.518c-0.854-0.29-1.59-0.604-2.207-0.94c-0.618-0.336-1.126-0.718-1.526-1.144
			c-0.4-0.427-0.695-0.913-0.885-1.458c-0.191-0.545-0.286-1.172-0.286-1.88c0-1.071,0.195-2.017,0.586-2.834
			c0.39-0.817,0.922-1.499,1.594-2.043c0.672-0.545,1.44-0.958,2.302-1.24c0.863-0.281,1.776-0.422,2.739-0.422
			c0.709,0,1.398,0.068,2.071,0.204c0.672,0.136,1.321,0.309,1.948,0.517c0.627,0.209,1.213,0.436,1.758,0.681
			c0.545,0.245,1.036,0.477,1.471,0.695L428.45,151.328z"/>
	</g>
	<rect x="321.668" y="176.995" fill="#B8E2DF" width="109.534" height="36.569"/>
	<rect x="321.819" y="217.986" fill="#B8E2DF" width="53.309" height="4.541"/>
	<rect x="378.99" y="217.986" fill="#B8E2DF" width="52.335" height="4.541"/>
	<rect x="321.819" y="225.156" fill="#B8E2DF" width="53.309" height="4.541"/>
	<rect x="378.99" y="225.156" fill="#B8E2DF" width="52.335" height="4.541"/>
	<rect x="321.819" y="232.327" fill="#B8E2DF" width="53.309" height="4.541"/>
	<rect x="378.99" y="232.327" fill="#B8E2DF" width="52.335" height="4.541"/>
	<rect x="321.819" y="239.497" fill="#B8E2DF" width="53.309" height="4.541"/>
	<rect x="378.99" y="239.497" fill="#B8E2DF" width="52.335" height="4.541"/>
	<rect x="321.819" y="246.668" fill="#B8E2DF" width="53.309" height="4.541"/>
	<rect x="378.99" y="246.668" fill="#B8E2DF" width="52.335" height="4.541"/>
	<rect x="321.819" y="253.838" fill="#B8E2DF" width="53.309" height="4.541"/>
	<rect x="378.99" y="253.838" fill="#B8E2DF" width="52.335" height="4.541"/>
	<rect x="321.819" y="261.726" fill="#B8E2DF" width="53.309" height="4.541"/>
	<rect x="378.99" y="261.726" fill="#B8E2DF" width="52.335" height="4.541"/>
	<rect x="321.819" y="268.896" fill="#B8E2DF" width="53.309" height="4.541"/>
	<rect x="378.99" y="268.896" fill="#B8E2DF" width="52.335" height="4.541"/>
	<rect x="321.819" y="276.067" fill="#B8E2DF" width="53.309" height="4.541"/>
	<rect x="378.99" y="276.067" fill="#B8E2DF" width="52.335" height="4.541"/>
	<rect x="321.819" y="283.237" fill="#B8E2DF" width="53.309" height="4.541"/>
	<rect x="378.99" y="283.237" fill="#B8E2DF" width="52.335" height="4.541"/>
	<g>
		<path fill="#B8E2DF" d="M378.76,301.845v0.869h-3.354v-0.869h1.246v-3.064c-0.053,0.07-0.135,0.144-0.246,0.22
			c-0.111,0.076-0.234,0.146-0.369,0.211s-0.275,0.118-0.421,0.163c-0.147,0.044-0.275,0.066-0.386,0.066v-0.904
			c0.117,0,0.253-0.035,0.408-0.105c0.155-0.07,0.304-0.152,0.447-0.246c0.143-0.094,0.269-0.187,0.378-0.281
			s0.171-0.161,0.189-0.202h0.992v4.144H378.76z"/>
	</g>
	<g>
		<path fill="#B8E2DF" d="M373.663,327.863c0.041-0.275,0.102-0.527,0.184-0.755c0.081-0.229,0.196-0.437,0.345-0.626
			c0.149-0.188,0.338-0.361,0.569-0.517c0.231-0.156,0.52-0.298,0.867-0.427c0.248-0.09,0.481-0.172,0.7-0.246
			c0.218-0.074,0.412-0.151,0.581-0.229c0.169-0.078,0.308-0.168,0.416-0.269c0.109-0.101,0.174-0.226,0.197-0.377
			c0.031-0.21-0.03-0.411-0.185-0.605c-0.155-0.194-0.403-0.316-0.743-0.367c-0.177-0.026-0.342-0.026-0.497,0.001
			c-0.155,0.027-0.298,0.069-0.431,0.126c-0.132,0.057-0.251,0.125-0.357,0.202c-0.105,0.078-0.201,0.154-0.285,0.228l-0.568-0.898
			c0.076-0.062,0.193-0.137,0.35-0.223c0.157-0.087,0.342-0.165,0.557-0.233c0.214-0.068,0.454-0.118,0.72-0.148
			c0.266-0.031,0.549-0.023,0.85,0.022c0.314,0.047,0.591,0.131,0.831,0.25s0.436,0.265,0.587,0.434
			c0.152,0.17,0.259,0.362,0.32,0.575c0.062,0.213,0.075,0.435,0.041,0.663c-0.036,0.242-0.118,0.451-0.245,0.626
			s-0.273,0.324-0.438,0.446c-0.166,0.123-0.341,0.222-0.526,0.298c-0.185,0.076-0.356,0.139-0.511,0.19
			c-0.147,0.045-0.314,0.098-0.501,0.161c-0.187,0.062-0.37,0.139-0.551,0.229c-0.181,0.09-0.346,0.19-0.497,0.302
			c-0.151,0.111-0.264,0.241-0.34,0.391l3.25,0.487l-0.146,0.972L373.663,327.863z"/>
	</g>
</g>
</svg>
